<svg width="382" height="53" viewBox="0 0 382 53" fill="none" xmlns="http://www.w3.org/2000/svg">
<g clip-path="url(#clip0_204_304)">
<path d="M131.82 23.3233L134.572 17.1511H100.982C100.982 17.1511 99.2009 17.1511 97.5011 18.1906C97.5011 18.1906 95.8014 19.1652 95.1538 20.5945L87.0597 37.6166C87.0597 37.6166 86.4121 39.0459 87.2216 40.0205C87.2216 40.0205 87.95 41.06 89.7307 41.06H123.241L126.154 35.2127H99.6866C99.6866 35.2127 98.9581 35.2127 98.6343 34.8229C98.6343 34.8229 98.3106 34.4331 98.6343 33.8484L103.005 24.6227L103.976 23.7131C103.976 23.7131 104.624 23.3233 105.352 23.3233H131.82ZM178.524 18.1906C178.524 18.1906 179.252 19.1652 178.605 20.5945L170.51 37.6166C170.51 37.6166 169.863 39.0459 168.163 40.0205C168.163 40.0205 166.463 41.06 164.683 41.06H134.815C134.815 41.06 133.035 41.06 132.306 40.0205C132.306 40.0205 131.497 39.0459 132.144 37.6166L135.544 30.5999C135.544 30.5999 136.191 29.1705 137.891 28.196C137.891 28.196 139.591 27.2214 141.371 27.2214H163.954L161.526 32.0292H145.823C145.823 32.0292 144.204 32.0292 143.476 33.3936L143.233 33.8484C143.233 33.8484 142.99 34.4331 143.314 34.8229C143.314 34.8229 143.638 35.2127 144.285 35.2127H160.797C160.797 35.2127 162.416 35.2127 163.145 33.8484L167.516 24.6227C167.516 24.6227 167.758 24.1029 167.435 23.7131C167.435 23.7131 167.111 23.3233 166.463 23.3233H139.024L141.614 17.1511H176.014C176.014 17.1511 177.795 17.1511 178.524 18.1906ZM218.671 17.1511C218.671 17.1511 220.451 17.1511 221.18 18.1906C221.18 18.1906 221.908 19.1652 221.261 20.5945L218.185 27.2214H210.496L211.71 24.6227V23.7131C211.71 23.7131 211.386 23.3233 210.657 23.3233H194.874C194.874 23.3233 194.145 23.3233 193.498 23.7131C193.498 23.7131 192.769 24.1029 192.527 24.6227L184.837 41.06H175.286L186.699 17.1511H218.671ZM243.115 3.11768L225.47 41.06H215.109L232.755 3.11768H243.115ZM279.782 17.1511L276.949 23.3233H248.214L242.548 35.2127H271.445L268.612 41.06H234.859C234.859 41.06 233.159 41.06 232.35 40.0205C232.35 40.0205 231.621 39.0459 232.269 37.6166L244.653 11.1739H253.961L251.128 17.1511H279.782ZM290.304 17.1511C288.523 17.1511 286.824 18.1906 286.824 18.1906C285.124 19.1652 284.476 20.5945 284.476 20.5945L276.382 37.6166C275.735 39.0459 276.463 40.0205 276.463 40.0205C277.191 41.06 278.972 41.06 278.972 41.06H311.349C313.13 41.06 314.829 40.0205 314.829 40.0205C316.61 39.0459 317.258 37.6166 317.258 37.6166L325.271 20.5945C325.918 19.1652 325.19 18.1906 325.19 18.1906C324.461 17.1511 322.681 17.1511 322.681 17.1511H290.304ZM294.999 23.3233H311.349C311.349 23.3233 312.077 23.3233 312.401 23.7131C312.401 23.7131 312.725 24.1029 312.482 24.6227L308.111 33.8484C308.111 33.8484 307.383 35.2127 305.764 35.2127H289.414C289.414 35.2127 288.685 35.2127 288.361 34.8229C288.361 34.8229 288.038 34.4331 288.361 33.8484L292.651 24.6227L293.623 23.7131C293.623 23.7131 294.351 23.3233 294.999 23.3233ZM369.789 18.1906C369.789 18.1906 370.517 19.1652 369.87 20.5945L360.157 41.06H351.091L358.781 24.6227C358.781 24.6227 359.104 24.1029 358.781 23.7131C358.781 23.7131 358.457 23.3233 357.728 23.3233H340.245C340.245 23.3233 339.517 23.3233 338.869 23.7131C338.869 23.7131 338.141 24.1029 337.898 24.6227L330.208 41.06H320.981L332.232 17.1511H367.279C367.279 17.1511 369.06 17.1511 369.789 18.1906Z" fill="white"/>
<path d="M24.249 53.0795L41.5705 12.9281H6.92745L24.249 53.0795ZM32.6669 45.5429L56.6256 24.6226L44.4844 18.1257L32.6669 45.5429ZM-8.12769 24.6226L4.01355 18.1257L15.831 45.5429L-8.12769 24.6226Z" fill="white"/>
</g>
<defs>
<clipPath id="clip0_204_304">
<rect width="382" height="53" fill="white"/>
</clipPath>
</defs>
</svg>
