<svg width="33" height="30" viewBox="0 0 33 30" fill="none" xmlns="http://www.w3.org/2000/svg">
<path d="M16.4998 15C21.0839 15 24.8 11.866 24.8 8C24.8 4.13401 21.0839 1 16.4998 1C11.9158 1 8.19965 4.13401 8.19965 8C8.19965 11.866 11.9158 15 16.4998 15Z" stroke="#EAEAEA" stroke-width="2"/>
<path d="M24.8002 17.8002H25.384C27.8955 17.8002 30.014 19.3774 30.3256 21.4792L30.9739 25.8528C31.2216 27.524 29.6764 29.0002 27.6794 29.0002H5.32056C3.32355 29.0002 1.77843 27.524 2.02613 25.8528L2.67437 21.4792C2.98589 19.3774 5.10445 17.8002 7.61604 17.8002H8.1998" stroke="#EAEAEA" stroke-width="2" stroke-linecap="round" stroke-linejoin="round"/>
</svg>
